<svg width="328" height="222" viewBox="0 0 328 222" fill="none" xmlns="http://www.w3.org/2000/svg">
<path d="M16.7534 64.75L8.00342 63.125V55.5L33.0034 52.5H33.3784L37.0034 55.125V145.625L45.1284 146.75V155H8.75342V146.75L16.7534 145.625V64.75ZM51.4722 135C51.4722 127.667 55.1805 122.042 62.5972 118.125C70.0972 114.208 79.9305 112.208 92.0972 112.125V109.625C92.0972 106.625 91.7638 104.25 91.0972 102.5C90.4305 100.75 89.2222 99.4583 87.4722 98.625C85.7222 97.7083 83.1388 97.25 79.7222 97.25C75.6388 97.25 71.9722 97.75 68.7222 98.75C65.5555 99.6667 62.2222 100.917 58.7222 102.5L54.4722 93.5C55.8055 92.4167 57.9722 91.125 60.9722 89.625C63.9722 88.0417 67.5555 86.7083 71.7222 85.625C75.9722 84.4583 80.3888 83.875 84.9722 83.875C91.6388 83.875 96.8472 84.75 100.597 86.5C104.431 88.25 107.139 90.9583 108.722 94.625C110.389 98.2917 111.222 103.292 111.222 109.625V146.75H117.722V154.625C115.806 155.042 113.139 155.458 109.722 155.875C106.306 156.292 103.389 156.5 100.972 156.5C97.8055 156.5 95.6805 156.042 94.5972 155.125C93.5972 154.208 93.0972 152.375 93.0972 149.625V146.75C91.0138 149.25 88.2222 151.5 84.7222 153.5C81.2222 155.417 77.1805 156.375 72.5972 156.375C68.6805 156.375 65.0972 155.542 61.8472 153.875C58.6805 152.125 56.1388 149.667 54.2222 146.5C52.3888 143.25 51.4722 139.417 51.4722 135ZM82.3472 144.875C83.8472 144.875 85.5138 144.458 87.3472 143.625C89.1805 142.708 90.7638 141.625 92.0972 140.375V120.5C85.5972 120.5 80.7638 121.667 77.5972 124C74.5138 126.333 72.9722 129.333 72.9722 133C72.9722 136.75 73.8055 139.667 75.4722 141.75C77.1388 143.833 79.4305 144.875 82.3472 144.875ZM130.136 64.75L121.636 63.125V55.5L146.511 52.5H146.886L150.511 55.125V113.5L150.136 119.625L173.636 94.875L164.386 93.5V85.625H198.386V93.5L188.136 95.125L174.636 108L195.261 145.625L201.761 146.75V155H167.011V146.75L172.636 145.625L160.261 120.875L150.136 131.375L150.386 137.75V145.625L157.636 146.75V155H123.261V146.75L130.136 145.625V64.75ZM224.694 101.625C225.777 99.125 227.486 96.5417 229.819 93.875C232.152 91.125 234.902 88.8333 238.069 87C241.319 85.0833 244.736 84.125 248.319 84.125C250.319 84.125 251.652 84.375 252.319 84.875L250.069 95.75C248.902 95.0833 246.986 94.75 244.319 94.75C240.486 94.75 236.611 96.2083 232.694 99.125C228.777 102.042 225.736 106.125 223.569 111.375L218.194 155H208.444L216.319 94.25L209.944 91.375L210.819 86.875L223.944 84.25L226.319 85.375L225.444 96.5L224.694 101.625ZM306.844 144.25C306.761 144.667 306.719 145.167 306.719 145.75C306.719 147.083 306.969 148.042 307.469 148.625C308.053 149.208 308.636 149.5 309.219 149.5C310.053 149.5 310.844 149.25 311.594 148.75C312.428 148.167 313.469 147.25 314.719 146L316.469 148.75C316.136 149.417 315.344 150.375 314.094 151.625C312.928 152.792 311.469 153.875 309.719 154.875C307.969 155.792 306.136 156.25 304.219 156.25C299.053 156.25 296.636 153.5 296.969 148L297.719 142.875C294.886 146.542 291.553 149.708 287.719 152.375C283.969 154.958 280.053 156.25 275.969 156.25C269.386 156.25 264.469 153.875 261.219 149.125C258.053 144.375 256.469 137.958 256.469 129.875C256.469 123.125 258.053 116.208 261.219 109.125C264.386 101.958 268.928 96 274.844 91.25C280.844 86.4167 287.803 84 295.719 84C297.469 84 299.511 84.2083 301.844 84.625C304.178 85.0417 306.261 85.5417 308.094 86.125L314.969 84.125L306.844 144.25ZM304.094 92.875C301.428 91.0417 298.178 90.125 294.344 90.125C288.594 90.125 283.636 92.125 279.469 96.125C275.303 100.042 272.136 105 269.969 111C267.803 117 266.719 122.917 266.719 128.75C266.719 135.167 267.636 140.167 269.469 143.75C271.386 147.25 274.261 149 278.094 149C281.844 149 285.553 147.542 289.219 144.625C292.969 141.625 296.094 138.333 298.594 134.75L304.094 92.875Z" fill="black"/>
<rect y="43" width="206" height="129" fill="#F0BFC2"/>
<path d="M16.7534 64.75L8.00342 63.125V55.5L33.0034 52.5H33.3784L37.0034 55.125V145.625L45.1284 146.75V155H8.75342V146.75L16.7534 145.625V64.75ZM51.4722 135C51.4722 127.667 55.1805 122.042 62.5972 118.125C70.0972 114.208 79.9305 112.208 92.0972 112.125V109.625C92.0972 106.625 91.7638 104.25 91.0972 102.5C90.4305 100.75 89.2222 99.4583 87.4722 98.625C85.7222 97.7083 83.1388 97.25 79.7222 97.25C75.6388 97.25 71.9722 97.75 68.7222 98.75C65.5555 99.6667 62.2222 100.917 58.7222 102.5L54.4722 93.5C55.8055 92.4167 57.9722 91.125 60.9722 89.625C63.9722 88.0417 67.5555 86.7083 71.7222 85.625C75.9722 84.4583 80.3888 83.875 84.9722 83.875C91.6388 83.875 96.8472 84.75 100.597 86.5C104.431 88.25 107.139 90.9583 108.722 94.625C110.389 98.2917 111.222 103.292 111.222 109.625V146.75H117.722V154.625C115.806 155.042 113.139 155.458 109.722 155.875C106.306 156.292 103.389 156.5 100.972 156.5C97.8055 156.5 95.6805 156.042 94.5972 155.125C93.5972 154.208 93.0972 152.375 93.0972 149.625V146.75C91.0138 149.25 88.2222 151.5 84.7222 153.5C81.2222 155.417 77.1805 156.375 72.5972 156.375C68.6805 156.375 65.0972 155.542 61.8472 153.875C58.6805 152.125 56.1388 149.667 54.2222 146.5C52.3888 143.25 51.4722 139.417 51.4722 135ZM82.3472 144.875C83.8472 144.875 85.5138 144.458 87.3472 143.625C89.1805 142.708 90.7638 141.625 92.0972 140.375V120.5C85.5972 120.5 80.7638 121.667 77.5972 124C74.5138 126.333 72.9722 129.333 72.9722 133C72.9722 136.75 73.8055 139.667 75.4722 141.75C77.1388 143.833 79.4305 144.875 82.3472 144.875ZM130.136 64.75L121.636 63.125V55.5L146.511 52.5H146.886L150.511 55.125V113.5L150.136 119.625L173.636 94.875L164.386 93.5V85.625H198.386V93.5L188.136 95.125L174.636 108L195.261 145.625L201.761 146.75V155H167.011V146.75L172.636 145.625L160.261 120.875L150.136 131.375L150.386 137.75V145.625L157.636 146.75V155H123.261V146.75L130.136 145.625V64.75ZM224.694 101.625C225.777 99.125 227.486 96.5417 229.819 93.875C232.152 91.125 234.902 88.8333 238.069 87C241.319 85.0833 244.736 84.125 248.319 84.125C250.319 84.125 251.652 84.375 252.319 84.875L250.069 95.75C248.902 95.0833 246.986 94.75 244.319 94.75C240.486 94.75 236.611 96.2083 232.694 99.125C228.777 102.042 225.736 106.125 223.569 111.375L218.194 155H208.444L216.319 94.25L209.944 91.375L210.819 86.875L223.944 84.25L226.319 85.375L225.444 96.5L224.694 101.625ZM306.844 144.25C306.761 144.667 306.719 145.167 306.719 145.75C306.719 147.083 306.969 148.042 307.469 148.625C308.053 149.208 308.636 149.5 309.219 149.5C310.053 149.5 310.844 149.25 311.594 148.75C312.428 148.167 313.469 147.25 314.719 146L316.469 148.75C316.136 149.417 315.344 150.375 314.094 151.625C312.928 152.792 311.469 153.875 309.719 154.875C307.969 155.792 306.136 156.25 304.219 156.25C299.053 156.25 296.636 153.5 296.969 148L297.719 142.875C294.886 146.542 291.553 149.708 287.719 152.375C283.969 154.958 280.053 156.25 275.969 156.25C269.386 156.25 264.469 153.875 261.219 149.125C258.053 144.375 256.469 137.958 256.469 129.875C256.469 123.125 258.053 116.208 261.219 109.125C264.386 101.958 268.928 96 274.844 91.25C280.844 86.4167 287.803 84 295.719 84C297.469 84 299.511 84.2083 301.844 84.625C304.178 85.0417 306.261 85.5417 308.094 86.125L314.969 84.125L306.844 144.25ZM304.094 92.875C301.428 91.0417 298.178 90.125 294.344 90.125C288.594 90.125 283.636 92.125 279.469 96.125C275.303 100.042 272.136 105 269.969 111C267.803 117 266.719 122.917 266.719 128.75C266.719 135.167 267.636 140.167 269.469 143.75C271.386 147.25 274.261 149 278.094 149C281.844 149 285.553 147.542 289.219 144.625C292.969 141.625 296.094 138.333 298.594 134.75L304.094 92.875Z" fill="black"/>
</svg>
