<svg width="738" height="222" viewBox="0 0 738 222" fill="none" xmlns="http://www.w3.org/2000/svg">
<path d="M221.753 64.75L213.003 63.125V55.5L238.003 52.5H238.378L242.003 55.125V145.625L250.128 146.75V155H213.753V146.75L221.753 145.625V64.75ZM256.472 135C256.472 127.667 260.181 122.042 267.597 118.125C275.097 114.208 284.931 112.208 297.097 112.125V109.625C297.097 106.625 296.764 104.25 296.097 102.5C295.431 100.75 294.222 99.4583 292.472 98.625C290.722 97.7083 288.139 97.25 284.722 97.25C280.639 97.25 276.972 97.75 273.722 98.75C270.556 99.6667 267.222 100.917 263.722 102.5L259.472 93.5C260.806 92.4167 262.972 91.125 265.972 89.625C268.972 88.0417 272.556 86.7083 276.722 85.625C280.972 84.4583 285.389 83.875 289.972 83.875C296.639 83.875 301.847 84.75 305.597 86.5C309.431 88.25 312.139 90.9583 313.722 94.625C315.389 98.2917 316.222 103.292 316.222 109.625V146.75H322.722V154.625C320.806 155.042 318.139 155.458 314.722 155.875C311.306 156.292 308.389 156.5 305.972 156.5C302.806 156.5 300.681 156.042 299.597 155.125C298.597 154.208 298.097 152.375 298.097 149.625V146.75C296.014 149.25 293.222 151.5 289.722 153.5C286.222 155.417 282.181 156.375 277.597 156.375C273.681 156.375 270.097 155.542 266.847 153.875C263.681 152.125 261.139 149.667 259.222 146.5C257.389 143.25 256.472 139.417 256.472 135ZM287.347 144.875C288.847 144.875 290.514 144.458 292.347 143.625C294.181 142.708 295.764 141.625 297.097 140.375V120.5C290.597 120.5 285.764 121.667 282.597 124C279.514 126.333 277.972 129.333 277.972 133C277.972 136.75 278.806 139.667 280.472 141.75C282.139 143.833 284.431 144.875 287.347 144.875ZM335.136 64.75L326.636 63.125V55.5L351.511 52.5H351.886L355.511 55.125V113.5L355.136 119.625L378.636 94.875L369.386 93.5V85.625H403.386V93.5L393.136 95.125L379.636 108L400.261 145.625L406.761 146.75V155H372.011V146.75L377.636 145.625L365.261 120.875L355.136 131.375L355.386 137.75V145.625L362.636 146.75V155H328.261V146.75L335.136 145.625V64.75ZM429.694 101.625C430.777 99.125 432.486 96.5417 434.819 93.875C437.152 91.125 439.902 88.8333 443.069 87C446.319 85.0833 449.736 84.125 453.319 84.125C455.319 84.125 456.652 84.375 457.319 84.875L455.069 95.75C453.902 95.0833 451.986 94.75 449.319 94.75C445.486 94.75 441.611 96.2083 437.694 99.125C433.777 102.042 430.736 106.125 428.569 111.375L423.194 155H413.444L421.319 94.25L414.944 91.375L415.819 86.875L428.944 84.25L431.319 85.375L430.444 96.5L429.694 101.625ZM511.844 144.25C511.761 144.667 511.719 145.167 511.719 145.75C511.719 147.083 511.969 148.042 512.469 148.625C513.053 149.208 513.636 149.5 514.219 149.5C515.053 149.5 515.844 149.25 516.594 148.75C517.428 148.167 518.469 147.25 519.719 146L521.469 148.75C521.136 149.417 520.344 150.375 519.094 151.625C517.928 152.792 516.469 153.875 514.719 154.875C512.969 155.792 511.136 156.25 509.219 156.25C504.053 156.25 501.636 153.5 501.969 148L502.719 142.875C499.886 146.542 496.553 149.708 492.719 152.375C488.969 154.958 485.053 156.25 480.969 156.25C474.386 156.25 469.469 153.875 466.219 149.125C463.053 144.375 461.469 137.958 461.469 129.875C461.469 123.125 463.053 116.208 466.219 109.125C469.386 101.958 473.928 96 479.844 91.25C485.844 86.4167 492.803 84 500.719 84C502.469 84 504.511 84.2083 506.844 84.625C509.178 85.0417 511.261 85.5417 513.094 86.125L519.969 84.125L511.844 144.25ZM509.094 92.875C506.428 91.0417 503.178 90.125 499.344 90.125C493.594 90.125 488.636 92.125 484.469 96.125C480.303 100.042 477.136 105 474.969 111C472.803 117 471.719 122.917 471.719 128.75C471.719 135.167 472.636 140.167 474.469 143.75C476.386 147.25 479.261 149 483.094 149C486.844 149 490.553 147.542 494.219 144.625C497.969 141.625 501.094 138.333 503.594 134.75L509.094 92.875Z" fill="black"/>
<rect x="202" y="43" width="209" height="129" fill="#F0BFC2"/>
<path d="M221.753 64.75L213.003 63.125V55.5L238.003 52.5H238.378L242.003 55.125V145.625L250.128 146.75V155H213.753V146.75L221.753 145.625V64.75ZM256.472 135C256.472 127.667 260.181 122.042 267.597 118.125C275.097 114.208 284.931 112.208 297.097 112.125V109.625C297.097 106.625 296.764 104.25 296.097 102.5C295.431 100.75 294.222 99.4583 292.472 98.625C290.722 97.7083 288.139 97.25 284.722 97.25C280.639 97.25 276.972 97.75 273.722 98.75C270.556 99.6667 267.222 100.917 263.722 102.5L259.472 93.5C260.806 92.4167 262.972 91.125 265.972 89.625C268.972 88.0417 272.556 86.7083 276.722 85.625C280.972 84.4583 285.389 83.875 289.972 83.875C296.639 83.875 301.847 84.75 305.597 86.5C309.431 88.25 312.139 90.9583 313.722 94.625C315.389 98.2917 316.222 103.292 316.222 109.625V146.75H322.722V154.625C320.806 155.042 318.139 155.458 314.722 155.875C311.306 156.292 308.389 156.5 305.972 156.5C302.806 156.5 300.681 156.042 299.597 155.125C298.597 154.208 298.097 152.375 298.097 149.625V146.75C296.014 149.25 293.222 151.5 289.722 153.5C286.222 155.417 282.181 156.375 277.597 156.375C273.681 156.375 270.097 155.542 266.847 153.875C263.681 152.125 261.139 149.667 259.222 146.5C257.389 143.25 256.472 139.417 256.472 135ZM287.347 144.875C288.847 144.875 290.514 144.458 292.347 143.625C294.181 142.708 295.764 141.625 297.097 140.375V120.5C290.597 120.5 285.764 121.667 282.597 124C279.514 126.333 277.972 129.333 277.972 133C277.972 136.75 278.806 139.667 280.472 141.75C282.139 143.833 284.431 144.875 287.347 144.875ZM335.136 64.75L326.636 63.125V55.5L351.511 52.5H351.886L355.511 55.125V113.5L355.136 119.625L378.636 94.875L369.386 93.5V85.625H403.386V93.5L393.136 95.125L379.636 108L400.261 145.625L406.761 146.75V155H372.011V146.75L377.636 145.625L365.261 120.875L355.136 131.375L355.386 137.75V145.625L362.636 146.75V155H328.261V146.75L335.136 145.625V64.75ZM429.694 101.625C430.777 99.125 432.486 96.5417 434.819 93.875C437.152 91.125 439.902 88.8333 443.069 87C446.319 85.0833 449.736 84.125 453.319 84.125C455.319 84.125 456.652 84.375 457.319 84.875L455.069 95.75C453.902 95.0833 451.986 94.75 449.319 94.75C445.486 94.75 441.611 96.2083 437.694 99.125C433.777 102.042 430.736 106.125 428.569 111.375L423.194 155H413.444L421.319 94.25L414.944 91.375L415.819 86.875L428.944 84.25L431.319 85.375L430.444 96.5L429.694 101.625ZM511.844 144.25C511.761 144.667 511.719 145.167 511.719 145.75C511.719 147.083 511.969 148.042 512.469 148.625C513.053 149.208 513.636 149.5 514.219 149.5C515.053 149.5 515.844 149.25 516.594 148.75C517.428 148.167 518.469 147.25 519.719 146L521.469 148.75C521.136 149.417 520.344 150.375 519.094 151.625C517.928 152.792 516.469 153.875 514.719 154.875C512.969 155.792 511.136 156.25 509.219 156.25C504.053 156.25 501.636 153.5 501.969 148L502.719 142.875C499.886 146.542 496.553 149.708 492.719 152.375C488.969 154.958 485.053 156.25 480.969 156.25C474.386 156.25 469.469 153.875 466.219 149.125C463.053 144.375 461.469 137.958 461.469 129.875C461.469 123.125 463.053 116.208 466.219 109.125C469.386 101.958 473.928 96 479.844 91.25C485.844 86.4167 492.803 84 500.719 84C502.469 84 504.511 84.2083 506.844 84.625C509.178 85.0417 511.261 85.5417 513.094 86.125L519.969 84.125L511.844 144.25ZM509.094 92.875C506.428 91.0417 503.178 90.125 499.344 90.125C493.594 90.125 488.636 92.125 484.469 96.125C480.303 100.042 477.136 105 474.969 111C472.803 117 471.719 122.917 471.719 128.75C471.719 135.167 472.636 140.167 474.469 143.75C476.386 147.25 479.261 149 483.094 149C486.844 149 490.553 147.542 494.219 144.625C497.969 141.625 501.094 138.333 503.594 134.75L509.094 92.875Z" fill="black"/>
</svg>
